PathFileType	4	(X/Y/Z)	3_coords_data.trc
DataRate	CameraRate	NumFrames	NumMarkers	Units	OrigDataRate	OrigDataStartFrame	OrigNumFrames
30.0	30.0	8	21	m	30.0	71	81
Frame#	Time	THUMB_TIP	THUMB_IP	THUMB_MCP	THUMB_CMC	INDEX_TIP	INDEX_DIP	INDEX_PIP	INDEX_MCP	MIDDLE_TIP	MIDDLE_DIP	MIDDLE_PIP	MIDDLE_MCP	RING_TIP	RING_DIP	RING_PIP	RING_MCP	PINKY_TIP	PINKY_DIP	PINKY_PIP	PINKY_MCP	WRIST
X1	Y1	Z1	X2	Y2	Z2	X3	Y3	Z3	X4	Y4	Z4	X5	Y5	Z5	X6	Y6	Z6	X7	Y7	Z7	X8	Y8	Z8	X9	Y9	Z9	X10	Y10	Z10	X11	Y11	Z11	X12	Y12	Z12	X13	Y13	Z13	X14	Y14	Z14	X15	Y15	Z15	X16	Y16	Z16	X17	Y17	Z17	X18	Y18	Z18	X19	Y19	Z19	X20	Y20	Z20	X21	Y21	Z21
70	2.3333333333333335	-0.15100999450683594	-0.09312220001220703	0.9170880126953125	-0.15716499328613281	-0.07911019897460937	0.94118701171875	-0.16307200622558593	-0.06871589660644531	0.9706849975585937	-0.16750599670410157	-0.04357799911499023	0.9972689819335937	-0.13633799743652344	-0.043598899841308596	0.865781005859375	-0.15100900268554687	-0.046307498931884766	0.8836439819335937	-0.16423599243164064	-0.048062400817871095	0.9038499755859375	-0.17617300415039064	-0.047428199768066406	0.9391580200195313	-0.13486399841308594	-0.0172814998626709	0.8612440185546875	-0.150156005859375	-0.01983869934082031	0.8791799926757813	-0.16844500732421874	-0.022896799087524414	0.901833984375	-0.18121600341796876	-0.026032100677490233	0.9391389770507812	-0.13805999755859374	0.005547800064086914	0.8831500244140625	-0.15619500732421876	0.0034686200618743892	0.8936179809570313	-0.1747030029296875	-0.000536692976951599	0.91035498046875	-0.1844669952392578	-0.00747081995010376	0.9466959838867187	-0.14658599853515625	0.023892799377441407	0.9039530029296875	-0.16161099243164062	0.022687599182128905	0.9145590209960938	-0.17429200744628906	0.01903160095214844	0.9282670288085938	-0.18004400634765624	0.010778400421142578	0.9552999877929688	-0.18778500366210937	-0.021604299545288086	1.022780029296875
71	2.3666666666666667	-0.15088299560546875	-0.0931011962890625	0.9173590087890625	-0.1570679931640625	-0.07903720092773438	0.9414860229492188	-0.16294200134277342	-0.06875910186767578	0.9709819946289062	-0.16714199829101561	-0.043606098175048826	0.9974320068359375	-0.13598199462890626	-0.043481800079345705	0.8661820068359375	-0.15045799255371095	-0.046189998626708986	0.8841129760742188	-0.16403900146484374	-0.048021900177001954	0.9040670166015625	-0.17611700439453126	-0.04744670104980469	0.9394580078125	-0.1346490020751953	-0.017199300765991212	0.861572021484375	-0.14979299926757814	-0.0197677001953125	0.879489990234375	-0.16806399536132813	-0.022845100402832032	0.9020390014648437	-0.18105900573730468	-0.026027799606323242	0.9394500122070313	-0.1375850067138672	0.005648920059204102	0.8837830200195312	-0.15541000366210939	0.003621540069580078	0.8940170288085938	-0.1745970001220703	-0.00044756600260734505	0.9107069702148437	-0.18457200622558595	-0.007416689872741699	0.9471079711914062	-0.14608700561523438	0.023872699737548828	0.9044450073242187	-0.16123500061035156	0.02274209976196289	0.9149320068359375	-0.17339399719238283	0.019161699295043945	0.9285189819335937	-0.18023399353027345	0.010730999946594239	0.9556160278320313	-0.1876929931640625	-0.021623699188232422	1.0230900268554688
72	2.4	-0.15046200561523437	-0.09315070343017579	0.91768798828125	-0.1567969970703125	-0.07906549835205078	0.9418159790039062	-0.16377699279785157	-0.06842479705810547	0.9715079956054687	-0.16694400024414063	-0.0435458984375	0.9978079833984375	-0.1355019989013672	-0.043453601837158205	0.8666179809570312	-0.15022000122070311	-0.046187999725341794	0.8842459716796875	-0.16367799377441405	-0.04799879837036133	0.9043319702148438	-0.17594900512695313	-0.047418098449707034	0.9398259887695313	-0.13416900634765624	-0.017177499771118165	0.8619119873046875	-0.1495290069580078	-0.019765899658203124	0.8798049926757813	-0.16741499328613282	-0.022939399719238283	0.9027890014648438	-0.18036199951171875	-0.026005199432373047	0.9396840209960937	-0.13714399719238282	0.0057370800971984865	0.8841630249023438	-0.15491000366210939	0.003662460088729858	0.8947869873046875	-0.17426100158691407	-0.00045001399517059304	0.9109710083007813	-0.18357000732421874	-0.00742326021194458	0.9474240112304687	-0.14560499572753907	0.023884199142456056	0.9048489990234375	-0.16082699584960938	0.022718599319458008	0.9152420043945313	-0.1731179962158203	0.019191999435424805	0.9286680297851563	-0.17970399475097656	0.010741100311279297	0.9558599853515625	-0.18750300598144531	-0.02162569999694824	1.0233599853515625
73	2.433333333333333	-0.1501929931640625	-0.09324559783935547	0.9179660034179687	-0.15649699401855469	-0.0791104965209961	0.9420759887695312	-0.16263699340820312	-0.06884529876708985	0.97164599609375	-0.166468994140625	-0.04378990173339844	0.9980460205078125	-0.13513600158691405	-0.043559700012207034	0.8669110107421875	-0.14994700622558593	-0.04626369857788086	0.8844730224609375	-0.1631230010986328	-0.04811529922485352	0.9045579833984375	-0.17539700317382811	-0.04755059814453125	0.940156005859375	-0.13361000061035155	-0.017288700103759765	0.862322021484375	-0.14916799926757812	-0.019830099105834963	0.8800070190429687	-0.16676699829101563	-0.02292539978027344	0.90314501953125	-0.18024699401855468	-0.026039899826049803	0.9399849853515625	-0.13650999450683593	0.005662519931793213	0.8845819702148437	-0.15486700439453124	0.0035785000324249257	0.8946810302734375	-0.17407899475097657	-0.000512983977794647	0.91127099609375	-0.18408500671386718	-0.0075657000541687015	0.9475449829101562	-0.14497300720214842	0.02375309944152832	0.905405029296875	-0.16033099365234374	0.02264539909362793	0.9154849853515625	-0.17290299987792968	0.019113800048828126	0.9289030151367188	-0.17988499450683593	0.0106358003616333	0.9558759765625	-0.1873000030517578	-0.02163909912109375	1.0236500244140625
74	2.466666666666667	-0.1500030059814453	-0.0932916030883789	0.9181859741210937	-0.1563350067138672	-0.07921970367431641	0.9423189697265625	-0.16326400756835938	-0.06858879852294922	0.9721669921875	-0.16623500061035157	-0.04383940124511719	0.99827197265625	-0.13480999755859374	-0.043633201599121096	0.8671699829101562	-0.14970599365234374	-0.046323299407958984	0.8847340087890625	-0.16304299926757812	-0.048149398803710934	0.9048410034179688	-0.1750489959716797	-0.047629600524902345	0.9405330200195312	-0.13320199584960937	-0.01739109992980957	0.862635986328125	-0.1488179931640625	-0.01992679977416992	0.8805260009765625	-0.1669720001220703	-0.023039499282836915	0.9030780029296875	-0.17974000549316407	-0.026142499923706056	0.940322998046875	-0.13621600341796875	0.005591390132904053	0.8848660278320313	-0.15440800476074218	0.003531719923019409	0.8949879760742188	-0.17385800170898438	-0.000518468976020813	0.9113930053710938	-0.18281199645996093	-0.007559269905090332	0.9478779907226562	-0.14488600158691406	0.02369540023803711	0.9054940185546875	-0.15993099975585937	0.022598199844360352	0.9157050170898438	-0.17241700744628907	0.019056800842285157	0.9291500244140625	-0.1793719940185547	0.010525699615478515	0.9562230224609375	-0.1866199951171875	-0.021638799667358398	1.023739990234375
75	2.5	-0.1496649932861328	-0.09336139678955079	0.91852099609375	-0.15614100646972656	-0.07923179626464844	0.9425609741210937	-0.16225799560546875	-0.0690279998779297	0.97202197265625	-0.16601800537109376	-0.043686000823974606	0.9984719848632813	-0.13463600158691405	-0.043644901275634765	0.8673920288085938	-0.14947599792480468	-0.04634889984130859	0.884875	-0.16286700439453125	-0.04824570083618164	0.9047509765625	-0.17507600402832033	-0.04759329986572266	0.94052099609375	-0.13301699829101563	-0.017448699951171875	0.86285498046875	-0.14855099487304688	-0.019952999114990235	0.8803790283203125	-0.16648899841308593	-0.02306220054626465	0.9034450073242187	-0.17889199829101562	-0.026136999130249024	0.9401209716796874	-0.13617100524902342	0.005527090072631836	0.8849630126953125	-0.15413699340820314	0.0035059499740600583	0.89539599609375	-0.1736179962158203	-0.0006145750284194941	0.9116829833984375	-0.18205099487304688	-0.0077076501846313475	0.9484320068359375	-0.144531005859375	0.023579099655151366	0.9057319946289063	-0.15973300170898438	0.02249839973449707	0.9159439697265624	-0.17215199279785157	0.018943599700927734	0.9294420166015624	-0.17910699462890625	0.010448200225830078	0.95639599609375	-0.1866510009765625	-0.021811000823974608	1.023989990234375
76	2.533333333333333	-0.14938999938964845	-0.09343309783935547	0.9187349853515625	-0.15582699584960938	-0.07939520263671875	0.9427230224609375	-0.16197700500488282	-0.06923459625244141	0.9722490234375	-0.16579899597167969	-0.04408269882202148	0.9986630249023437	-0.1342899932861328	-0.043793399810791014	0.8676329956054688	-0.14923199462890624	-0.046481899261474606	0.8851939697265625	-0.16243899536132814	-0.048310199737548826	0.9051640014648438	-0.17507400512695312	-0.04766970062255859	0.9408599853515625	-0.13274899291992187	-0.01758329963684082	0.8630759887695313	-0.14832699584960937	-0.02011400032043457	0.8807880249023438	-0.1660399932861328	-0.023185100555419922	0.9035339965820313	-0.17948699951171876	-0.026372499465942383	0.9407059936523438	-0.13588499450683594	0.005346590042114257	0.8851740112304688	-0.15368899536132813	0.003384710073471069	0.8957960205078125	-0.17338699340820313	-0.000683727979660034	0.9117969970703125	-0.18200900268554687	-0.007732029914855957	0.9482340087890625	-0.14433500671386718	0.02347249984741211	0.9059010009765625	-0.15947900390625	0.022391799926757813	0.9161610107421875	-0.1717530059814453	0.018876100540161134	0.9296400146484375	-0.17905799865722657	0.010358200073242188	0.9565759887695312	-0.18621800231933594	-0.021931100845336914	1.0241800537109376
77	2.566666666666667	-0.14932200622558595	-0.09354399871826172	0.9188489990234375	-0.15565800476074218	-0.07940809631347656	0.943041015625	-0.16207099914550782	-0.06919100189208985	0.97252099609375	-0.16563099670410156	-0.04405210113525391	0.9989550170898438	-0.13406700134277344	-0.04379759979248047	0.8679429931640625	-0.14867999267578125	-0.04656909942626953	0.8856409912109375	-0.1625659942626953	-0.04836920166015625	0.9053250122070312	-0.17478799438476564	-0.04790420150756836	0.9409760131835937	-0.13250799560546875	-0.017641700744628907	0.8632990112304687	-0.14806700134277342	-0.020205699920654296	0.8810050048828125	-0.16577799987792968	-0.02327560043334961	0.9036290283203126	-0.17883099365234376	-0.026453300476074217	0.94077001953125	-0.1355679931640625	0.005324649810791016	0.8854290161132813	-0.15343600463867188	0.003347990036010742	0.8959530029296875	-0.173197998046875	-0.000737628996372222	0.9119500122070312	-0.18194400024414062	-0.007932250022888183	0.9484869995117188	-0.14418600463867187	0.023424600601196287	0.906083984375	-0.1596390075683594	0.022339599609375	0.9164119873046875	-0.17192300415039063	0.01884510040283203	0.9298579711914062	-0.17881199645996093	0.010299799919128418	0.9568090209960938	-0.18632200622558595	-0.02196910095214844	1.024530029296875
